<?xml version="1.0" encoding="utf-8"?>
<!-- Generator: Adobe Illustrator 16.0.0, SVG Export Plug-In . SVG Version: 6.00 Build 0)  -->
<!DOCTYPE svg PUBLIC "-//W3C//DTD SVG 1.1//EN" "http://www.w3.org/Graphics/SVG/1.1/DTD/svg11.dtd">
<svg version="1.1" id="Calque_1" xmlns="http://www.w3.org/2000/svg" xmlns:xlink="http://www.w3.org/1999/xlink" x="0px" y="0px"
	 width="357.768px" height="91.475px" viewBox="0 0 357.768 91.475" enable-background="new 0 0 357.768 91.475"
	 xml:space="preserve">
<g>
	<g id="ligne">
		<rect x="41.373" y="63.894" fill="#FFFFFF" width="280.995" height="0.712"/>
	</g>
	<g>
		<path fill="#FFFFFF" d="M53.292,15.215h7.402l9.532,36.201h-6.034l-2.23-8.873H51.365l-2.333,8.873h-6.033L53.292,15.215z
			 M60.998,37.93L56.84,20.082h-0.102l-4.31,17.848H60.998z"/>
		<path fill="#FFFFFF" d="M94.404,38.437v0.761c0,6.54-2.637,12.929-11.154,12.929c-9.127,0-11.966-5.882-11.966-18.811
			c0-12.93,2.839-18.811,12.017-18.811c10.292,0,10.9,7.605,10.9,11.357v0.659h-5.779v-0.608c0-3.347-1.015-7.2-5.172-7.048
			c-4.259,0-6.186,2.637-6.186,14.298s1.927,14.603,6.186,14.603c4.816,0,5.374-5.375,5.374-8.721v-0.608H94.404z"/>
		<path fill="#FFFFFF" d="M120.103,38.437v0.761c0,6.54-2.637,12.929-11.154,12.929c-9.127,0-11.966-5.882-11.966-18.811
			c0-12.93,2.839-18.811,12.016-18.811c10.293,0,10.901,7.605,10.901,11.357v0.659h-5.779v-0.608c0-3.347-1.015-7.2-5.172-7.048
			c-4.259,0-6.186,2.637-6.186,14.298s1.927,14.603,6.186,14.603c4.816,0,5.374-5.375,5.374-8.721v-0.608H120.103z"/>
		<path fill="#FFFFFF" d="M123.544,15.215h19.57v4.867h-13.791v10.039h12.98v4.867h-12.98v11.561h14.197v4.867h-19.977V15.215z"/>
		<path fill="#FFFFFF" d="M152.199,40.211v0.913c0,4.41,1.927,6.642,5.933,6.642c3.65,0,5.476-2.586,5.476-5.273
			c0-3.803-1.927-5.476-5.172-6.439l-3.954-1.368c-5.273-2.028-7.556-4.767-7.556-9.938c0-6.591,4.463-10.241,11.257-10.241
			c9.278,0,10.241,5.78,10.241,9.531v0.812h-5.779v-0.761c0-3.295-1.471-5.222-5.071-5.222c-2.484,0-4.867,1.369-4.867,5.222
			c0,3.094,1.572,4.665,5.426,6.136l3.904,1.419c5.12,1.826,7.352,4.614,7.352,9.583c0,7.707-4.665,10.901-11.966,10.901
			c-8.975,0-11.003-5.983-11.003-11.053v-0.862H152.199z"/>
		<path fill="#FFFFFF" d="M177.898,40.211v0.913c0,4.41,1.927,6.642,5.932,6.642c3.651,0,5.477-2.586,5.477-5.273
			c0-3.803-1.927-5.476-5.172-6.439l-3.955-1.368c-5.272-2.028-7.555-4.767-7.555-9.938c0-6.591,4.462-10.241,11.256-10.241
			c9.279,0,10.242,5.78,10.242,9.531v0.812h-5.78v-0.761c0-3.295-1.47-5.222-5.07-5.222c-2.484,0-4.867,1.369-4.867,5.222
			c0,3.094,1.571,4.665,5.425,6.136l3.904,1.419c5.121,1.826,7.353,4.614,7.353,9.583c0,7.707-4.665,10.901-11.967,10.901
			c-8.974,0-11.002-5.983-11.002-11.053v-0.862H177.898z"/>
	</g>
	<g>
		<path fill="#FFFFFF" d="M274.731,19.575h-4.767v27.48h4.767c4.766,0,6.743-3.144,6.743-13.74
			C281.474,23.124,279.75,19.575,274.731,19.575z"/>
		<path fill="#FFFFFF" d="M247.581,18.865c-3.447,0-6.186,2.129-6.186,14.298c0,12.473,2.738,14.603,6.186,14.603
			c3.448,0,6.187-2.13,6.187-14.603C253.767,20.994,251.029,18.865,247.581,18.865z"/>
		<path fill="#FFFFFF" d="M200.737,0v64.408h121.63V0H200.737z M233.037,39.197c0,6.54-2.637,12.929-11.155,12.929
			c-9.126,0-11.965-5.882-11.965-18.811c0-12.93,2.839-18.811,12.016-18.811c10.293,0,10.901,7.605,10.901,11.357v0.659h-5.78
			v-0.608c0-3.347-1.014-7.2-5.172-7.048c-4.259,0-6.186,2.637-6.186,14.298s1.927,14.603,6.186,14.603
			c4.816,0,5.375-5.375,5.375-8.721v-0.608h5.78V39.197z M247.581,52.126c-8.314,0-11.965-5.882-11.965-18.811
			c0-12.93,3.65-18.811,11.965-18.811c8.315,0,11.967,5.881,11.967,18.811C259.547,46.244,255.896,52.126,247.581,52.126z
			 M274.477,51.416h-10.293V15.215h10.293c11.357,0,12.777,7.402,12.777,18.101S285.834,51.416,274.477,51.416z M311.869,51.416
			h-19.977V15.215h19.571v4.867h-13.791v10.039h12.98v4.867h-12.98v11.561h14.197V51.416z"/>
	</g>
	<g>
		<path fill="#FFFFFF" d="M0,32.482l28.194-12.592v4.792L5.683,34.545l22.511,9.862v4.792L0,36.606V32.482z"/>
	</g>
	<g>
		<path fill="#FFFFFF" d="M357.768,36.606l-28.193,12.593v-4.792l22.51-9.862l-22.51-9.862v-4.792l28.193,12.592V36.606z"/>
	</g>
	<g>
		<path fill="#FFFFFF" d="M44.909,87.515c0,2.237,1.451,3.96,3.984,3.96c2.436,0,4.059-1.747,4.059-3.984
			c0-2.288-1.229-3.075-3.197-3.764l-1.992-0.689c-2.313-0.786-3.566-1.918-3.566-4.304c0-2.829,1.942-4.575,4.697-4.575
			c3.247,0,4.698,1.845,4.698,4.771h-1.033c0-2.361-1.082-3.936-3.566-3.936c-1.968,0-3.764,0.91-3.764,3.641
			c0,1.943,1.059,2.878,2.583,3.395l2.607,0.91c2.263,0.787,3.566,1.894,3.566,4.477c0,3.123-2.313,4.895-5.092,4.895
			c-4.059,0-5.018-2.854-5.018-4.55v-1.156h1.033V87.515z"/>
		<path fill="#FFFFFF" d="M104.959,79.496c0-2.361-1.254-4.502-3.837-4.502c-3.493,0-4.648,3.271-4.648,8.216
			c0,4.723,0.959,8.265,4.501,8.265c3.395,0,4.206-3.984,4.206-5.362h1.033c0,2.066-1.033,6.198-5.411,6.198
			c-3.813,0-5.362-3.369-5.362-9.052c0-5.509,1.55-9.101,5.633-9.101c4.107,0,4.919,3.616,4.919,5.338H104.959z"/>
		<path fill="#FFFFFF" d="M147.965,74.453h1.032v7.699h7.699v-7.699h1.033v17.563h-1.033v-8.929h-7.699v8.929h-1.032V74.453z"/>
		<path fill="#FFFFFF" d="M211.165,83.234c0,7.699-3.173,9.076-5.657,9.076c-3.369,0-5.681-2.263-5.681-9.076
			s2.459-9.076,5.681-9.076C209,74.158,211.165,76.421,211.165,83.234z M200.859,83.234c0,4.821,0.984,8.24,4.648,8.24
			c3.223,0,4.625-2.657,4.625-8.24c0-4.747-1.058-8.24-4.625-8.24C202.064,74.994,200.859,78.413,200.859,83.234z"/>
		<path fill="#FFFFFF" d="M264.034,83.234c0,7.699-3.174,9.076-5.658,9.076c-3.369,0-5.681-2.263-5.681-9.076
			s2.459-9.076,5.681-9.076C261.87,74.158,264.034,76.421,264.034,83.234z M253.727,83.234c0,4.821,0.984,8.24,4.648,8.24
			c3.223,0,4.625-2.657,4.625-8.24c0-4.747-1.058-8.24-4.625-8.24C254.932,74.994,253.727,78.413,253.727,83.234z"/>
		<path fill="#FFFFFF" d="M306.129,74.453h1.033V91.08h7.354v0.936h-8.387V74.453z"/>
	</g>
</g>
</svg>
