<?xml version="1.0" encoding="utf-8"?>
<!-- Generator: Adobe Illustrator 16.0.0, SVG Export Plug-In . SVG Version: 6.00 Build 0)  -->
<!DOCTYPE svg PUBLIC "-//W3C//DTD SVG 1.1//EN" "http://www.w3.org/Graphics/SVG/1.1/DTD/svg11.dtd">
<svg version="1.1" id="Calque_1" xmlns="http://www.w3.org/2000/svg" xmlns:xlink="http://www.w3.org/1999/xlink" x="0px" y="0px"
	 width="486.429px" height="92.143px" viewBox="0 0 486.429 92.143" enable-background="new 0 0 486.429 92.143"
	 xml:space="preserve">
<g>
	<text transform="matrix(1 0 0 1 97.6138 43.374)" fill="#FFFFFF" font-family="'CenturyGothic'" font-size="50.4938">Onlineformapro</text>
	<text transform="matrix(1 0 0 1 99.2729 80.8027)" fill="#FFFFFF" font-family="'CenturyGothic'" font-size="28.1213">L’assurance de l’excellence</text>
	<g>
		<g>
			<path fill="#FFFFFF" d="M67.391,78.47c-11.704,7.971-34.738,11.402-46.926,0.49c12.388,4.457,25.779,2.17,39.152-3.826
				c13.33-6.301,24.224-20.682,25.434-29.711C87.042,53.962,78.989,70.572,67.391,78.47z"/>
			<path fill="#FFFFFF" d="M59.833,56.57c-5.996,5.285-16.027,11.285-24.885,13.83C21.348,74.304,5.542,71.029,0.877,54.904
				l-0.134-0.482c1.642,4.287,14.245,16.771,54.391-16.666C67.06,27.82,73.422,24.557,79.844,26.558
				c2.143,0.814,2.823,1.39,4.495,3.582C79.986,32.235,76.217,42.142,59.833,56.57z"/>
			<path fill="#FFFFFF" d="M35.769,28.995c-6.247,4.628-11.736,9.127-19.823,12.204C4.292,45.052-1.671,41.197,0.408,32.136
				l0.534-2.02c0.631-1.891,1.552-4.387,2.318-6.226c-1.747,5.632,10.806,1.402,18.027-2.442
				c6.121-3.261,11.408-7.965,17.992-10.429c2.512-0.942,5.635-2.11,11.854-0.741c2.763,0.662,7.064,2.103,7.677,2.574
				C49.326,15.351,41.548,24.713,35.769,28.995z"/>
			<path fill="#FFFFFF" d="M23.3,11.155c-2.062,1.25-11.01,7.035-13.912,4.889c-0.021-0.844-0.35-4.889,8.161-9.056
				c3.635-1.783,10.111-2.618,15.809-0.993C28.859,6.826,27.623,8.536,23.3,11.155z"/>
		</g>
	</g>
</g>
</svg>
